<?xml version="1.0" encoding="utf-8"?>
<!-- Generator: Adobe Illustrator 16.0.4, SVG Export Plug-In . SVG Version: 6.00 Build 0)  -->
<!DOCTYPE svg PUBLIC "-//W3C//DTD SVG 1.1//EN" "http://www.w3.org/Graphics/SVG/1.1/DTD/svg11.dtd">
<svg version="1.1" id="Layer_1" xmlns:svg="http://www.w3.org/2000/svg"
	 xmlns="http://www.w3.org/2000/svg" xmlns:xlink="http://www.w3.org/1999/xlink" x="0px" y="0px"
	 viewBox="0 0 500 500" enable-background="new 0 0 500 500" xml:space="preserve">
<path fill="#178AFF" d="M248.801,5.5C169.2,5.5,104.4,70.3,104.4,150c0,79.6,64.8,144.4,144.4,144.4
	c79.6,0,144.399-64.8,144.399-144.4C393.2,70.3,328.4,5.5,248.801,5.5z M112.601,286.1C72.4,294.3,42.8,329.8,42.8,372.5v122h414.4
	V372.6c0-42.8-29.6-78.199-69.899-86.399c-31.9,40.5-81.7,67.5-137.301,67.5c-55.6,0-104.2-27-136.2-67.5
	C113.4,285.9,112.9,286.4,112.601,286.1L112.601,286.1L112.601,286.1L112.601,286.1L112.601,286.1z"/>
</svg>
